HIERARCHY
ROOT Root
{
	OFFSET 0.00000 0.00000 0.00000
	CHANNELS 6 Xposition Yposition Zposition Zrotation Xrotation Yrotation
	JOINT Hips
	{
		OFFSET 0 0 0	
		CHANNELS 3 Zrotation Xrotation Yrotation
		JOINT Spine
		{
			OFFSET 0 4 0	
			CHANNELS 3 Zrotation Xrotation Yrotation
			JOINT Spine1
			{
				OFFSET 0 19.4 0	
				CHANNELS 3 Zrotation Xrotation Yrotation
				JOINT Spine2
				{
					OFFSET 0 16.6 0	
					CHANNELS 3 Zrotation Xrotation Yrotation
					JOINT LeftCollar
					{
						OFFSET 0 10 0	
						CHANNELS 3 Zrotation Xrotation Yrotation
						JOINT LeftArm
						{
							OFFSET 15.6 -2 3	
							CHANNELS 3 Zrotation Xrotation Yrotation
							JOINT LeftForeArm
							{
								OFFSET 3.5 -27 -1	
								CHANNELS 3 Zrotation Xrotation Yrotation
								JOINT LeftHand
								{
									OFFSET 1 -27 1	
									CHANNELS 3 Zrotation Xrotation Yrotation
									End Site
									{
										OFFSET 0 -15 0
									}
								}
							}
						}
					}
					JOINT RightCollar
					{
						OFFSET 0 10 0	
						CHANNELS 3 Zrotation Xrotation Yrotation
						JOINT RightArm
						{
							OFFSET -15.6 -2 3	
							CHANNELS 3 Zrotation Xrotation Yrotation
							JOINT RightForeArm
							{
								OFFSET -3.5 -27 -1	
								CHANNELS 3 Zrotation Xrotation Yrotation
								JOINT RightHand
								{
									OFFSET -1 -27 1	
									CHANNELS 3 Zrotation Xrotation Yrotation
									End Site
									{
										OFFSET 0 -15 0
									}
								}
							}
						}
					}
					JOINT Neck
					{
						OFFSET 0 10 0	
						CHANNELS 3 Zrotation Xrotation Yrotation
						JOINT Head
						{
							OFFSET 0 12.7 3	
							CHANNELS 3 Zrotation Xrotation Yrotation
							End Site
							{
								OFFSET 0 12.7 3
							}
						}
					}
				}
			}
		}
	}
	JOINT LeftHip
	{
		OFFSET 0 0 0	
		CHANNELS 3 Zrotation Xrotation Yrotation
		JOINT LeftUpLeg
		{
			OFFSET 8.8 -6 0	
			CHANNELS 3 Zrotation Xrotation Yrotation
			JOINT LeftLeg
			{
				OFFSET 0 -39 2	
				CHANNELS 3 Zrotation Xrotation Yrotation
				JOINT LeftFoot
				{
					OFFSET 0 -43 -2	
					CHANNELS 3 Zrotation Xrotation Yrotation
					JOINT LeftFootFront
					{
						OFFSET 0 -7 8.5	
						CHANNELS 3 Zrotation Xrotation Yrotation
						End Site
						{
							OFFSET 0 -0.5 9
						}
					}
				}
				JOINT LeftHeel
				{
					OFFSET 0 -43 -2	
					CHANNELS 3 Zrotation Xrotation Yrotation
					End Site
					{
						OFFSET 0 -7.5 -5
					}
				}
			}
		}
	}
	JOINT RightHip
	{
		OFFSET 0 0 0	
		CHANNELS 3 Zrotation Xrotation Yrotation
		JOINT RightUpLeg
		{
			OFFSET -8.8 -6 0	
			CHANNELS 3 Zrotation Xrotation Yrotation
			JOINT RightLeg
			{
				OFFSET 0 -39 2	
				CHANNELS 3 Zrotation Xrotation Yrotation
				JOINT RightFoot
				{
					OFFSET 0 -43 -2	
					CHANNELS 3 Zrotation Xrotation Yrotation
					JOINT RightFootFront
					{
						OFFSET 0 -7 8.5	
						CHANNELS 3 Zrotation Xrotation Yrotation
						End Site
						{
							OFFSET 0 -0.5 9
						}
					}
				}
				JOINT RightHeel
				{
					OFFSET 0 -43 -2	
					CHANNELS 3 Zrotation Xrotation Yrotation
					End Site
					{
						OFFSET 0 -7.5 -5
					}
				}
			}
		}
	}
}
MOTION
Frames: 18
Frame Time: 0.05
0 95.5 0 -0 0 -0 -0 0 -0 -0 0 -0 5.239 -4.7076 48.417 -0 0 -0 -0 0 -0 9.0581 -26.733 -12.863 -132.91 -49.492 -55.685 -0 0 -0 -0 0 -0 -5.5145 -35.318 20.959 136.11 -44.893 55.608 -0 0 -0 -0.6303 1.6442 11.858 -0.6303 1.6442 11.858 -0 0 -0 -0 0 -0 -0 0 -0 -0 0 -0 -0 0 -0 -0 0 -0 -0 0 -0 -0 0 -0 -0 0 -0 -0 0 -0 -0 0 -0 -0 0 -0 
0 95.5 0 -0 0 -0 -0 0 -0 -0 0 -0 5.1483 -4.6875 48.67 -0 0 -0 -0 0 -0 9.2569 -26.095 -12.195 -131.3 -49.422 -52.688 -0 0 -0 -0 0 -0 -6.1136 -34.255 20.462 135.83 -45.374 54.854 -0 0 -0 -0.64618 1.8113 11.887 -0.64618 1.8113 11.887 -0 0 -0 -0 0 -0 -0 0 -0 -0 0 -0 -0 0 -0 -0 0 -0 -0 0 -0 -0 0 -0 -0 0 -0 -0 0 -0 -0 0 -0 -0 0 -0 
0 95.5 0 -0 0 -0 -0 0 -0 -0 0 -0 4.9794 -4.635 48.886 -0 0 -0 -0 0 -0 9.5007 -25.472 -11.446 -129.7 -49.303 -49.328 -0 0 -0 -0 0 -0 -6.6718 -33.189 20.01 135.52 -45.894 54.014 -0 0 -0 -0.58731 2.0704 11.916 -0.58731 2.0704 11.916 -0 0 -0 -0 0 -0 -0 0 -0 -0 0 -0 -0 0 -0 -0 0 -0 -0 0 -0 -0 0 -0 -0 0 -0 -0 0 -0 -0 0 -0 -0 0 -0 
0 95.5 0 -0 0 -0 -0 0 -0 -0 0 -0 4.8957 -4.6811 49.121 -0 0 -0 -0 0 -0 9.7142 -24.71 -10.746 -128.3 -49.122 -46.598 -0 0 -0 -0 0 -0 -7.189 -31.983 19.608 135.09 -46.503 52.883 -0 0 -0 -0.48658 2.4683 11.884 -0.48658 2.4683 11.884 -0 0 -0 -0 0 -0 -0 0 -0 -0 0 -0 -0 0 -0 -0 0 -0 -0 0 -0 -0 0 -0 -0 0 -0 -0 0 -0 -0 0 -0 -0 0 -0 
0 95.5 0 -0 0 -0 -0 0 -0 -0 0 -0 4.7815 -4.615 49.315 -0 0 -0 -0 0 -0 9.8312 -24.086 -10.041 -127.12 -48.82 -44.564 -0 0 -0 -0 0 -0 -7.7054 -30.939 19.32 134.33 -47.28 50.9 -0 0 -0 -0.44936 2.6828 11.789 -0.44936 2.6828 11.789 -0 0 -0 -0 0 -0 -0 0 -0 -0 0 -0 -0 0 -0 -0 0 -0 -0 0 -0 -0 0 -0 -0 0 -0 -0 0 -0 -0 0 -0 -0 0 -0 
0 95.5 0 -0 0 -0 -0 0 -0 -0 0 -0 4.6028 -4.5314 49.522 -0 0 -0 -0 0 -0 9.9613 -23.686 -9.5208 -126.23 -48.585 -43.292 -0 0 -0 -0 0 -0 -8.078 -30.047 19.065 133.27 -47.915 48.397 -0 0 -0 -0.46088 2.6581 11.665 -0.46087 2.6581 11.665 -0 0 -0 -0 0 -0 -0 0 -0 -0 0 -0 -0 0 -0 -0 0 -0 -0 0 -0 -0 0 -0 -0 0 -0 -0 0 -0 -0 0 -0 -0 0 -0 
0 95.5 0 -0 0 -0 -0 0 -0 -0 0 -0 4.445 -4.4232 49.719 -0 0 -0 -0 0 -0 10.025 -23.476 -9.2048 -125.59 -48.427 -42.414 -0 0 -0 -0 0 -0 -8.3182 -29.352 18.973 132.09 -48.506 45.736 -0 0 -0 -0.5367 2.4914 11.623 -0.5367 2.4914 11.623 -0 0 -0 -0 0 -0 -0 0 -0 -0 0 -0 -0 0 -0 -0 0 -0 -0 0 -0 -0 0 -0 -0 0 -0 -0 0 -0 -0 0 -0 -0 0 -0 
0 95.5 0 -0 0 -0 -0 0 -0 -0 0 -0 4.4086 -4.3459 49.871 -0 0 -0 -0 0 -0 10.037 -23.26 -8.9641 -125.2 -48.31 -41.941 -0 0 -0 -0 0 -0 -8.4209 -28.752 19.135 131.01 -49.044 43.603 -0 0 -0 -0.58013 2.4005 11.583 -0.58013 2.4005 11.583 -0 0 -0 -0 0 -0 -0 0 -0 -0 0 -0 -0 0 -0 -0 0 -0 -0 0 -0 -0 0 -0 -0 0 -0 -0 0 -0 -0 0 -0 -0 0 -0 
0 95.5 0 -0 0 -0 -0 0 -0 -0 0 -0 4.3485 -4.1974 50.087 -0 0 -0 -0 0 -0 9.9758 -23.208 -8.8555 -125 -48.24 -41.874 -0 0 -0 -0 0 -0 -8.5311 -28.408 19.228 130.19 -49.444 42.188 -0 0 -0 -0.65501 2.2877 11.484 -0.65501 2.2877 11.484 -0 0 -0 -0 0 -0 -0 0 -0 -0 0 -0 -0 0 -0 -0 0 -0 -0 0 -0 -0 0 -0 -0 0 -0 -0 0 -0 -0 0 -0 -0 0 -0 
0 95.5 0 -0 0 -0 -0 0 -0 -0 0 -0 4.3365 -4.143 50.158 -0 0 -0 -0 0 -0 10.01 -23.137 -8.6871 -125 -48.208 -42.086 -0 0 -0 -0 0 -0 -8.4825 -28.198 19.431 129.6 -49.733 41.092 -0 0 -0 -0.68201 2.2575 11.452 -0.68201 2.2575 11.452 -0 0 -0 -0 0 -0 -0 0 -0 -0 0 -0 -0 0 -0 -0 0 -0 -0 0 -0 -0 0 -0 -0 0 -0 -0 0 -0 -0 0 -0 -0 0 -0 
0 95.5 0 -0 0 -0 -0 0 -0 -0 0 -0 4.3161 -4.1239 50.203 -0 0 -0 -0 0 -0 10.064 -23.146 -8.5843 -125.16 -48.192 -42.481 -0 0 -0 -0 0 -0 -8.365 -28.168 19.674 129 -49.886 39.629 -0 0 -0 -0.69726 2.2251 11.426 -0.69726 2.2251 11.426 -0 0 -0 -0 0 -0 -0 0 -0 -0 0 -0 -0 0 -0 -0 0 -0 -0 0 -0 -0 0 -0 -0 0 -0 -0 0 -0 -0 0 -0 -0 0 -0 
0 95.5 0 -0 0 -0 -0 0 -0 -0 0 -0 4.2598 -4.0747 50.217 -0 0 -0 -0 0 -0 10.121 -23.309 -8.5356 -125.5 -48.173 -43.199 -0 0 -0 -0 0 -0 -8.2101 -28.336 19.955 128.87 -49.927 39.335 -0 0 -0 -0.71698 2.1208 11.374 -0.71698 2.1208 11.374 -0 0 -0 -0 0 -0 -0 0 -0 -0 0 -0 -0 0 -0 -0 0 -0 -0 0 -0 -0 0 -0 -0 0 -0 -0 0 -0 -0 0 -0 -0 0 -0 
0 95.5 0 -0 0 -0 -0 0 -0 -0 0 -0 4.25 -4.0507 50.174 -0 0 -0 -0 0 -0 10.201 -23.481 -8.5126 -126.14 -48.128 -44.592 -0 0 -0 -0 0 -0 -8.0268 -28.599 20.27 128.89 -49.986 39.295 -0 0 -0 -0.75228 2.011 11.345 -0.75228 2.011 11.345 -0 0 -0 -0 0 -0 -0 0 -0 -0 0 -0 -0 0 -0 -0 0 -0 -0 0 -0 -0 0 -0 -0 0 -0 -0 0 -0 -0 0 -0 -0 0 -0 
0 95.5 0 -0 0 -0 -0 0 -0 -0 0 -0 4.3058 -4.047 50.086 -0 0 -0 -0 0 -0 10.259 -23.677 -8.6137 -127.08 -48.144 -46.649 -0 0 -0 -0 0 -0 -7.8333 -28.987 20.59 128.92 -49.948 39.099 -0 0 -0 -0.77932 1.8622 11.305 -0.77932 1.8622 11.305 -0 0 -0 -0 0 -0 -0 0 -0 -0 0 -0 -0 0 -0 -0 0 -0 -0 0 -0 -0 0 -0 -0 0 -0 -0 0 -0 -0 0 -0 -0 0 -0 
0 95.5 0 -0 0 -0 -0 0 -0 -0 0 -0 4.3107 -4.0099 49.994 -0 0 -0 -0 0 -0 10.28 -24.078 -8.8619 -128.17 -48.248 -49.057 -0 0 -0 -0 0 -0 -7.6214 -29.612 20.885 129.08 -49.769 39.041 -0 0 -0 -0.8068 1.5812 11.317 -0.8068 1.5812 11.317 -0 0 -0 -0 0 -0 -0 0 -0 -0 0 -0 -0 0 -0 -0 0 -0 -0 0 -0 -0 0 -0 -0 0 -0 -0 0 -0 -0 0 -0 -0 0 -0 
0 95.5 0 -0 0 -0 -0 0 -0 -0 0 -0 4.3577 -3.9816 49.874 -0 0 -0 -0 0 -0 10.268 -24.556 -9.2054 -129.31 -48.431 -51.464 -0 0 -0 -0 0 -0 -7.3457 -30.343 21.251 129.44 -49.579 39.342 -0 0 -0 -0.83225 1.2552 11.408 -0.83225 1.2552 11.408 -0 0 -0 -0 0 -0 -0 0 -0 -0 0 -0 -0 0 -0 -0 0 -0 -0 0 -0 -0 0 -0 -0 0 -0 -0 0 -0 -0 0 -0 -0 0 -0 
0 95.5 0 -0 0 -0 -0 0 -0 -0 0 -0 4.4381 -3.9369 49.733 -0 0 -0 -0 0 -0 10.218 -25.044 -9.5491 -130.43 -48.565 -53.63 -0 0 -0 -0 0 -0 -7.0459 -31.1 21.671 130.02 -49.431 39.999 -0 0 -0 -0.87582 0.90937 11.552 -0.87582 0.90937 11.552 -0 0 -0 -0 0 -0 -0 0 -0 -0 0 -0 -0 0 -0 -0 0 -0 -0 0 -0 -0 0 -0 -0 0 -0 -0 0 -0 -0 0 -0 -0 0 -0 
0 95.5 0 -0 0 -0 -0 0 -0 -0 0 -0 4.5373 -3.8815 49.575 -0 0 -0 -0 0 -0 10.159 -25.48 -9.8379 -131.43 -48.607 -55.452 -0 0 -0 -0 0 -0 -6.7623 -31.795 22.054 130.74 -49.169 40.858 -0 0 -0 -0.9534 0.59063 11.695 -0.9534 0.59062 11.695 -0 0 -0 -0 0 -0 -0 0 -0 -0 0 -0 -0 0 -0 -0 0 -0 -0 0 -0 -0 0 -0 -0 0 -0 -0 0 -0 -0 0 -0 -0 0 -0 
